<svg xmlns="http://www.w3.org/2000/svg" width="62" height="62" fill="none"><g filter="url(#a)"><path fill="#EEE" d="M0 0h58v58H0z"/><path stroke="#222" stroke-width="2" d="M1 1h56v56H1z"/></g><g stroke="#000" stroke-linecap="round" stroke-linejoin="round" stroke-width="1.5" clip-path="url(#b)"><path d="M34.583 32c-1.052 2.297-3.216 3.75-5.583 3.75M38.185 23.75c-1.798-3.689-5.333-5.997-9.184-5.997-3.851 0-7.386 2.308-9.185 5.997"/><path d="M18.991 25.994c-1.169 4.58.444 9.461 4.03 12.197 3.586 2.736 8.372 2.736 11.958 0 3.586-2.736 5.199-7.617 4.03-12.197"/><path d="M29 23.75c.093 3.209-2.23 5.893-5.192 6-2.962-.107-5.285-2.791-5.193-6H29Z" clip-rule="evenodd"/><path d="M39.385 23.75c.092 3.209-2.23 5.893-5.193 6-2.962-.107-5.285-2.791-5.192-6h10.385Z" clip-rule="evenodd"/></g><defs><clipPath id="b"><path fill="#fff" d="M17 17h24v24H17z"/></clipPath><filter id="a" width="62" height="62" x="0" y="0" color-interpolation-filters="sRGB" filterUnits="userSpaceOnUse"><feFlood flood-opacity="0" result="BackgroundImageFix"/><feColorMatrix in="SourceAlpha" result="hardAlpha" values="0 0 0 0 0 0 0 0 0 0 0 0 0 0 0 0 0 0 127 0"/><feOffset dx="4" dy="4"/><feColorMatrix values="0 0 0 0 0.933333 0 0 0 0 0.933333 0 0 0 0 0.933333 0 0 0 1 0"/><feBlend in2="BackgroundImageFix" result="effect1_dropShadow_2_137"/><feBlend in="SourceGraphic" in2="effect1_dropShadow_2_137" result="shape"/></filter></defs></svg>